<?xml version="1.0" encoding="UTF-8" standalone="no"?>
<!DOCTYPE svg PUBLIC "-//W3C//DTD SVG 1.1//EN"
 "http://www.w3.org/Graphics/SVG/1.1/DTD/svg11.dtd">
<!-- Generated by graphviz version 2.40.1 (20161225.0304)
 -->
<!-- Title: %0 Pages: 1 -->
<svg width="203pt" height="50pt"
 viewBox="0.00 0.00 203.33 50.48" xmlns="http://www.w3.org/2000/svg" xmlns:xlink="http://www.w3.org/1999/xlink">
<g id="graph0" class="graph" transform="scale(1 1) rotate(0) translate(4 46.4753)">
<title>%0</title>
<polygon fill="#ffffff" stroke="transparent" points="-4,4 -4,-46.4753 199.331,-46.4753 199.331,4 -4,4"/>
<!-- A -->
<g id="node1" class="node">
<title>A</title>
<ellipse fill="none" stroke="#000000" cx="27" cy="-24.4753" rx="27" ry="18"/>
<text text-anchor="middle" x="27" y="-20.2753" font-family="Times,serif" font-size="14.00" fill="#000000">A</text>
</g>
<!-- B -->
<g id="node2" class="node">
<title>B</title>
<ellipse fill="none" stroke="#000000" cx="168.331" cy="-24.4753" rx="27" ry="18"/>
<text text-anchor="middle" x="168.331" y="-20.2753" font-family="Times,serif" font-size="14.00" fill="#000000">B</text>
</g>
<!-- A&#45;&#45;B -->
<g id="edge1" class="edge">
<title>A&#45;&#45;B</title>
<path fill="none" stroke="#000000" d="M54.25,-24.4753C79.2765,-24.4753 116.1646,-24.4753 141.1646,-24.4753"/>
<text text-anchor="middle" x="97.6655" y="-28.6753" font-family="Times,serif" font-size="14.00" fill="#000000">signaling</text>
</g>
<!-- A&#45;&#45;B -->
<g id="edge2" class="edge">
<title>A&#45;&#45;B</title>
<path fill="none" stroke="#000000" d="M47.8516,-12.5564C55.2371,-8.9598 63.7623,-5.487 72,-3.6753 94.2813,1.2251 101.0497,1.2251 123.331,-3.6753 131.5687,-5.487 140.0939,-8.9598 147.4794,-12.5564"/>
<text text-anchor="middle" x="97.6655" y="-7.6753" font-family="Times,serif" font-size="14.00" fill="#000000">media</text>
</g>
</g>
</svg>
