<?xml version="1.0" encoding="UTF-8" standalone="no"?><svg xmlns="http://www.w3.org/2000/svg" xmlns:xlink="http://www.w3.org/1999/xlink" contentScriptType="application/ecmascript" contentStyleType="text/css" height="549px" preserveAspectRatio="none" style="width:385px;height:549px;" version="1.1" viewBox="0 0 385 549" width="385px" zoomAndPan="magnify"><defs><filter height="300%" id="f1mc3bx04brdbk" width="300%" x="-1" y="-1"><feGaussianBlur result="blurOut" stdDeviation="2.0"/><feColorMatrix in="blurOut" result="blurOut2" type="matrix" values="0 0 0 0 0 0 0 0 0 0 0 0 0 0 0 0 0 0 .4 0"/><feOffset dx="4.0" dy="4.0" in="blurOut2" result="blurOut3"/><feBlend in="SourceGraphic" in2="blurOut3" mode="normal"/></filter></defs><g><line style="stroke: #A80036; stroke-width: 1.0; stroke-dasharray: 5.0,5.0;" x1="21" x2="21" y1="38.2969" y2="509.2891"/><line style="stroke: #A80036; stroke-width: 1.0; stroke-dasharray: 5.0,5.0;" x1="132.5" x2="132.5" y1="38.2969" y2="509.2891"/><line style="stroke: #A80036; stroke-width: 1.0; stroke-dasharray: 5.0,5.0;" x1="243" x2="243" y1="38.2969" y2="509.2891"/><line style="stroke: #A80036; stroke-width: 1.0; stroke-dasharray: 5.0,5.0;" x1="354.5" x2="354.5" y1="38.2969" y2="509.2891"/><rect fill="#FEFECE" filter="url(#f1mc3bx04brdbk)" height="30.2969" style="stroke: #A80036; stroke-width: 1.5;" width="23" x="8" y="3"/><text fill="#000000" font-family="sans-serif" font-size="14" lengthAdjust="spacingAndGlyphs" textLength="9" x="15" y="22.9951">A</text><rect fill="#FEFECE" filter="url(#f1mc3bx04brdbk)" height="30.2969" style="stroke: #A80036; stroke-width: 1.5;" width="23" x="8" y="508.2891"/><text fill="#000000" font-family="sans-serif" font-size="14" lengthAdjust="spacingAndGlyphs" textLength="9" x="15" y="528.2842">A</text><rect fill="#FEFECE" filter="url(#f1mc3bx04brdbk)" height="30.2969" style="stroke: #A80036; stroke-width: 1.5;" width="60" x="100.5" y="3"/><text fill="#000000" font-family="sans-serif" font-size="14" lengthAdjust="spacingAndGlyphs" textLength="46" x="107.5" y="22.9951">proxyA</text><rect fill="#FEFECE" filter="url(#f1mc3bx04brdbk)" height="30.2969" style="stroke: #A80036; stroke-width: 1.5;" width="60" x="100.5" y="508.2891"/><text fill="#000000" font-family="sans-serif" font-size="14" lengthAdjust="spacingAndGlyphs" textLength="46" x="107.5" y="528.2842">proxyA</text><rect fill="#FEFECE" filter="url(#f1mc3bx04brdbk)" height="30.2969" style="stroke: #A80036; stroke-width: 1.5;" width="61" x="211" y="3"/><text fill="#000000" font-family="sans-serif" font-size="14" lengthAdjust="spacingAndGlyphs" textLength="47" x="218" y="22.9951">proxyB</text><rect fill="#FEFECE" filter="url(#f1mc3bx04brdbk)" height="30.2969" style="stroke: #A80036; stroke-width: 1.5;" width="61" x="211" y="508.2891"/><text fill="#000000" font-family="sans-serif" font-size="14" lengthAdjust="spacingAndGlyphs" textLength="47" x="218" y="528.2842">proxyB</text><rect fill="#FEFECE" filter="url(#f1mc3bx04brdbk)" height="30.2969" style="stroke: #A80036; stroke-width: 1.5;" width="24" x="340.5" y="3"/><text fill="#000000" font-family="sans-serif" font-size="14" lengthAdjust="spacingAndGlyphs" textLength="10" x="347.5" y="22.9951">B</text><rect fill="#FEFECE" filter="url(#f1mc3bx04brdbk)" height="30.2969" style="stroke: #A80036; stroke-width: 1.5;" width="24" x="340.5" y="508.2891"/><text fill="#000000" font-family="sans-serif" font-size="14" lengthAdjust="spacingAndGlyphs" textLength="10" x="347.5" y="528.2842">B</text><polygon fill="#A80036" points="120.5,65.4297,130.5,69.4297,120.5,73.4297,124.5,69.4297" style="stroke: #A80036; stroke-width: 1.0;"/><line style="stroke: #A80036; stroke-width: 1.0;" x1="21.5" x2="126.5" y1="69.4297" y2="69.4297"/><text fill="#000000" font-family="sans-serif" font-size="13" font-weight="bold" lengthAdjust="spacingAndGlyphs" textLength="9" x="28.5" y="64.3638">1</text><text fill="#000000" font-family="sans-serif" font-size="13" lengthAdjust="spacingAndGlyphs" textLength="40" x="41.5" y="64.3638">INVITE</text><polygon fill="#A80036" points="32.5,94.5625,22.5,98.5625,32.5,102.5625,28.5,98.5625" style="stroke: #A80036; stroke-width: 1.0;"/><line style="stroke: #A80036; stroke-width: 1.0;" x1="26.5" x2="131.5" y1="98.5625" y2="98.5625"/><text fill="#000000" font-family="sans-serif" font-size="13" font-weight="bold" lengthAdjust="spacingAndGlyphs" textLength="9" x="38.5" y="93.4966">2</text><text fill="#000000" font-family="sans-serif" font-size="13" lengthAdjust="spacingAndGlyphs" textLength="59" x="51.5" y="93.4966">100 Tring</text><polygon fill="#A80036" points="231.5,123.6953,241.5,127.6953,231.5,131.6953,235.5,127.6953" style="stroke: #A80036; stroke-width: 1.0;"/><line style="stroke: #A80036; stroke-width: 1.0;" x1="132.5" x2="237.5" y1="127.6953" y2="127.6953"/><text fill="#000000" font-family="sans-serif" font-size="13" font-weight="bold" lengthAdjust="spacingAndGlyphs" textLength="9" x="139.5" y="122.6294">3</text><text fill="#000000" font-family="sans-serif" font-size="13" lengthAdjust="spacingAndGlyphs" textLength="40" x="152.5" y="122.6294">INVITE</text><polygon fill="#A80036" points="143.5,152.8281,133.5,156.8281,143.5,160.8281,139.5,156.8281" style="stroke: #A80036; stroke-width: 1.0;"/><line style="stroke: #A80036; stroke-width: 1.0;" x1="137.5" x2="242.5" y1="156.8281" y2="156.8281"/><text fill="#000000" font-family="sans-serif" font-size="13" font-weight="bold" lengthAdjust="spacingAndGlyphs" textLength="9" x="149.5" y="151.7622">4</text><text fill="#000000" font-family="sans-serif" font-size="13" lengthAdjust="spacingAndGlyphs" textLength="59" x="162.5" y="151.7622">100 Tring</text><polygon fill="#A80036" points="342.5,181.9609,352.5,185.9609,342.5,189.9609,346.5,185.9609" style="stroke: #A80036; stroke-width: 1.0;"/><line style="stroke: #A80036; stroke-width: 1.0;" x1="243.5" x2="348.5" y1="185.9609" y2="185.9609"/><text fill="#000000" font-family="sans-serif" font-size="13" font-weight="bold" lengthAdjust="spacingAndGlyphs" textLength="9" x="250.5" y="180.895">5</text><text fill="#000000" font-family="sans-serif" font-size="13" lengthAdjust="spacingAndGlyphs" textLength="40" x="263.5" y="180.895">INVITE</text><polygon fill="#A80036" points="254.5,211.0938,244.5,215.0938,254.5,219.0938,250.5,215.0938" style="stroke: #A80036; stroke-width: 1.0;"/><line style="stroke: #A80036; stroke-width: 1.0;" x1="248.5" x2="353.5" y1="215.0938" y2="215.0938"/><text fill="#000000" font-family="sans-serif" font-size="13" font-weight="bold" lengthAdjust="spacingAndGlyphs" textLength="9" x="260.5" y="210.0278">6</text><text fill="#000000" font-family="sans-serif" font-size="13" lengthAdjust="spacingAndGlyphs" textLength="74" x="273.5" y="210.0278">180 Ringing</text><polygon fill="#A80036" points="143.5,240.2266,133.5,244.2266,143.5,248.2266,139.5,244.2266" style="stroke: #A80036; stroke-width: 1.0;"/><line style="stroke: #A80036; stroke-width: 1.0;" x1="137.5" x2="242.5" y1="244.2266" y2="244.2266"/><text fill="#000000" font-family="sans-serif" font-size="13" font-weight="bold" lengthAdjust="spacingAndGlyphs" textLength="9" x="149.5" y="239.1606">7</text><text fill="#000000" font-family="sans-serif" font-size="13" lengthAdjust="spacingAndGlyphs" textLength="74" x="162.5" y="239.1606">180 Ringing</text><polygon fill="#A80036" points="32.5,269.3594,22.5,273.3594,32.5,277.3594,28.5,273.3594" style="stroke: #A80036; stroke-width: 1.0;"/><line style="stroke: #A80036; stroke-width: 1.0;" x1="26.5" x2="131.5" y1="273.3594" y2="273.3594"/><text fill="#000000" font-family="sans-serif" font-size="13" font-weight="bold" lengthAdjust="spacingAndGlyphs" textLength="9" x="38.5" y="268.2935">8</text><text fill="#000000" font-family="sans-serif" font-size="13" lengthAdjust="spacingAndGlyphs" textLength="74" x="51.5" y="268.2935">180 Ringing</text><polygon fill="#A80036" points="254.5,298.4922,244.5,302.4922,254.5,306.4922,250.5,302.4922" style="stroke: #A80036; stroke-width: 1.0;"/><line style="stroke: #A80036; stroke-width: 1.0;" x1="248.5" x2="353.5" y1="302.4922" y2="302.4922"/><text fill="#000000" font-family="sans-serif" font-size="13" font-weight="bold" lengthAdjust="spacingAndGlyphs" textLength="9" x="260.5" y="297.4263">9</text><text fill="#000000" font-family="sans-serif" font-size="13" lengthAdjust="spacingAndGlyphs" textLength="43" x="273.5" y="297.4263">200 ok</text><polygon fill="#A80036" points="143.5,327.625,133.5,331.625,143.5,335.625,139.5,331.625" style="stroke: #A80036; stroke-width: 1.0;"/><line style="stroke: #A80036; stroke-width: 1.0;" x1="137.5" x2="242.5" y1="331.625" y2="331.625"/><text fill="#000000" font-family="sans-serif" font-size="13" font-weight="bold" lengthAdjust="spacingAndGlyphs" textLength="18" x="149.5" y="326.5591">10</text><text fill="#000000" font-family="sans-serif" font-size="13" lengthAdjust="spacingAndGlyphs" textLength="43" x="171.5" y="326.5591">200 ok</text><polygon fill="#A80036" points="32.5,356.7578,22.5,360.7578,32.5,364.7578,28.5,360.7578" style="stroke: #A80036; stroke-width: 1.0;"/><line style="stroke: #A80036; stroke-width: 1.0;" x1="26.5" x2="131.5" y1="360.7578" y2="360.7578"/><text fill="#000000" font-family="sans-serif" font-size="13" font-weight="bold" lengthAdjust="spacingAndGlyphs" textLength="18" x="38.5" y="355.6919">11</text><text fill="#000000" font-family="sans-serif" font-size="13" lengthAdjust="spacingAndGlyphs" textLength="43" x="60.5" y="355.6919">200 ok</text><polygon fill="#A80036" points="342.5,385.8906,352.5,389.8906,342.5,393.8906,346.5,389.8906" style="stroke: #A80036; stroke-width: 1.0;"/><line style="stroke: #A80036; stroke-width: 1.0;" x1="21.5" x2="348.5" y1="389.8906" y2="389.8906"/><text fill="#000000" font-family="sans-serif" font-size="13" font-weight="bold" lengthAdjust="spacingAndGlyphs" textLength="18" x="28.5" y="384.8247">12</text><text fill="#000000" font-family="sans-serif" font-size="13" lengthAdjust="spacingAndGlyphs" textLength="26" x="50.5" y="384.8247">ACK</text><rect fill="#EEEEEE" filter="url(#f1mc3bx04brdbk)" height="3" style="stroke: #EEEEEE; stroke-width: 1.0;" width="370.5" x="3" y="418.457"/><line style="stroke: #000000; stroke-width: 1.0;" x1="3" x2="373.5" y1="418.457" y2="418.457"/><line style="stroke: #000000; stroke-width: 1.0;" x1="3" x2="373.5" y1="421.457" y2="421.457"/><rect fill="#EEEEEE" filter="url(#f1mc3bx04brdbk)" height="23.1328" style="stroke: #000000; stroke-width: 2.0;" width="56" x="160.25" y="407.8906"/><text fill="#000000" font-family="sans-serif" font-size="13" font-weight="bold" lengthAdjust="spacingAndGlyphs" textLength="42" x="166.25" y="423.9575">媒体流</text><polygon fill="#A80036" points="32.5,458.1563,22.5,462.1563,32.5,466.1563,28.5,462.1563" style="stroke: #A80036; stroke-width: 1.0;"/><line style="stroke: #A80036; stroke-width: 1.0;" x1="26.5" x2="353.5" y1="462.1563" y2="462.1563"/><text fill="#000000" font-family="sans-serif" font-size="13" font-weight="bold" lengthAdjust="spacingAndGlyphs" textLength="18" x="38.5" y="457.0903">13</text><text fill="#000000" font-family="sans-serif" font-size="13" lengthAdjust="spacingAndGlyphs" textLength="24" x="60.5" y="457.0903">BYE</text><polygon fill="#A80036" points="342.5,487.2891,352.5,491.2891,342.5,495.2891,346.5,491.2891" style="stroke: #A80036; stroke-width: 1.0;"/><line style="stroke: #A80036; stroke-width: 1.0;" x1="21.5" x2="348.5" y1="491.2891" y2="491.2891"/><text fill="#000000" font-family="sans-serif" font-size="13" font-weight="bold" lengthAdjust="spacingAndGlyphs" textLength="18" x="28.5" y="486.2231">14</text><text fill="#000000" font-family="sans-serif" font-size="13" lengthAdjust="spacingAndGlyphs" textLength="43" x="50.5" y="486.2231">200 ok</text></g></svg>